# xmcd
#
# Track frame offsets:
#	225
#	11424
#	26397
#	42471
#	56131
#	69948
#	86880
#	96749
#	111410
#	129202
#	142643
#	157681
#	170329
#	182753
#
# Disc length: 2645 seconds
#
# Revision: 0
# Processed by: cddbd v1.5.2PL0 Copyright (c) Steve Scherf et al.
# Submitted via: audiograbber 1.83.01
#
DISCID=b20a520e
DTITLE=Diverse - Anton Feten-Mix CD1
DYEAR=2005
DGENRE=Party
TTITLE0=Bernie Bennings - Don`t You Just Know It
TTITLE1=Stefano - Es ballert in den Alpen
TTITLE2=DJ Schweber - Hey! Amigo Charlie Braun
TTITLE3=Anna Kaast - Blonde können`s besser
TTITLE4=Achim Mentzel - Wir machen auf dem Mars eine Kneipe auf
TTITLE5=Sonja Christin - Pina Colada Ole
TTITLE6=Chris Wolff - Spanische Rosen
TTITLE7=Achim Mentzel - Party
TTITLE8=Tiffany - Heiße Nächte am Strand von Mallorca
TTITLE9=Bernie Bennings - Ich hab die Schnauze voll
TTITLE10=Die alten Säcke - Wir gehörn noch lange nicht zum alten Eisen
TTITLE11=Michaela Christ - Küsse von Carlos
TTITLE12=Marabell - Amigo si, Amigo no
TTITLE13=Sunshine Party Band - Ay ay Maria
EXTD=
EXTT0=
EXTT1=
EXTT2=
EXTT3=
EXTT4=
EXTT5=
EXTT6=
EXTT7=
EXTT8=
EXTT9=
EXTT10=
EXTT11=
EXTT12=
EXTT13=
PLAYORDER=
